<?xml version="1.0" encoding="utf-8"?>
<!-- Generator: Adobe Illustrator 25.3.0, SVG Export Plug-In . SVG Version: 6.00 Build 0)  -->
<svg version="1.1" id="Ebene_1" xmlns="http://www.w3.org/2000/svg" xmlns:xlink="http://www.w3.org/1999/xlink" x="0px" y="0px"
	 viewBox="0 0 1010.1 1515.2" style="enable-background:new 0 0 1010.1 1515.2;" xml:space="preserve">
<style type="text/css">
	.st0{fill:#FFFFFF;}
	.st1{fill:#C95C5B;}
	.st2{fill:#70405F;}
	.st3{fill:#E9B85F;}
	.st4{fill:#004481;}
</style>
<g>
	<path class="st0" d="M505.8,325.5c-112.7,0-204.5,91.2-204.5,203.2c0,112.1,91.8,203.2,204.5,203.2c112.7,0,204.5-91.2,204.5-203.2
		C710.3,416.7,618.5,325.5,505.8,325.5z"/>
	<path class="st0" d="M919.3,496.5c0-109.8-43-213-121.2-290.6c-78-77.5-181.9-120.4-292.4-120.4c-110.4,0-214.2,42.9-292.3,120.4
		C135.4,283.6,92.4,386.7,92.4,496.5c0,136.5,76.4,342.8,220.9,596.4c75.4,132.1,151.3,245.5,192.4,304.7
		c41.1-59.9,117.5-174.6,193-307.8C842.9,835.5,919.3,630.4,919.3,496.5z M224.4,528.8c0-154.3,126.3-279.8,281.4-279.8
		c155.2,0,281.4,125.5,281.4,279.8S661,808.6,505.8,808.6C350.7,808.6,224.4,683.1,224.4,528.8z"/>
	<path class="st1" d="M787.2,528.8C787.2,374.5,661,249,505.8,249c-155.1,0-281.4,125.5-281.4,279.8s126.3,279.8,281.4,279.8
		C661,808.6,787.2,683.1,787.2,528.8z M505.8,732c-112.7,0-204.5-91.2-204.5-203.2c0-112.1,91.8-203.2,204.5-203.2
		c112.7,0,204.5,91.2,204.5,203.2C710.3,640.9,618.5,732,505.8,732z"/>
	<path class="st1" d="M537.1,1486.7c1.1-1.6,115.5-160.1,228.2-358.6c153.3-269.9,231-482.4,231-631.7
		c0-130.1-51.1-252.5-143.7-344.6C760,59.8,636.9,9.1,505.8,9.1c-131,0-254.1,50.7-346.7,142.8C68.3,242,17.5,361.3,15.4,488.3v17.1
		c3,151.3,80.7,361.5,230.9,625.1c112.8,197.8,227.2,354.8,228.3,356.3c7.1,9.7,18.2,15.5,30.2,15.7h1.9
		C518.8,1502.3,530,1496.5,537.1,1486.7z M313.3,1092.9C168.8,839.3,92.4,633,92.4,496.5c0-109.8,43-213,121.2-290.6
		c78-77.5,181.8-120.4,292.3-120.4c110.4,0,214.3,42.9,292.4,120.4c78.2,77.7,121.2,180.8,121.2,290.6c0,133.9-76.4,339-220.6,593.3
		c-75.5,133.1-151.9,247.9-193,307.8C464.6,1338.3,388.7,1225,313.3,1092.9z"/>
</g>
<path class="st2" d="M-176.4,1495c0,16.6-13.6,30-30.2,30c-16.7,0-30.2-13.5-30.2-30c0-16.6,13.6-30,30.2-30
	C-190,1465-176.4,1478.4-176.4,1495 M-165.1,1495c0-22.8-18.6-41.3-41.6-41.3c-22.9,0-41.6,18.5-41.6,41.3s18.7,41.3,41.6,41.3
	C-183.7,1536.3-165.1,1517.8-165.1,1495 M-145.6,1490.2c0,19.8-11.3,50.1-32.6,87.6c-11.2,19.7-22.4,36.6-28.5,45.5
	c-6.1-8.8-17.3-25.5-28.4-45c-21.3-37.5-32.6-67.9-32.6-88.1c0-16.2,6.4-31.5,17.9-42.9c11.5-11.5,26.9-17.8,43.2-17.8
	c16.3,0,31.7,6.3,43.2,17.8C-151.9,1458.8-145.6,1474-145.6,1490.2 M-134.2,1490.2c0-19.2-7.5-37.3-21.2-50.9
	c-13.7-13.6-31.8-21.1-51.2-21.1c-19.4,0-37.5,7.5-51.2,21.1c-13.7,13.6-21.2,31.7-21.2,50.9c0,22.4,11.5,54,34.1,93.7
	c16.7,29.2,33.6,52.4,33.7,52.6c1.1,1.5,2.8,2.3,4.6,2.3h0c1.8,0,3.5-0.9,4.6-2.3c0.2-0.2,17.1-23.7,33.7-53
	C-145.7,1543.7-134.2,1512.3-134.2,1490.2"/>
<path class="st3" d="M-588.3,1565.8c0,10.9-8.9,19.8-19.9,19.8c-11,0-19.9-8.9-19.9-19.8c0-10.9,8.9-19.8,19.9-19.8
	C-597.2,1546-588.3,1554.9-588.3,1565.8 M-580.8,1565.8c0-15-12.3-27.3-27.4-27.3c-15.1,0-27.4,12.2-27.4,27.3s12.3,27.3,27.4,27.3
	C-593.1,1593.1-580.8,1580.9-580.8,1565.8 M-567.9,1562.7c0,13-7.4,33-21.5,57.8c-7.4,13-14.8,24.2-18.8,30
	c-4-5.8-11.4-16.8-18.8-29.7c-14.1-24.7-21.5-44.8-21.5-58.1c0-10.7,4.2-20.8,11.8-28.3c7.6-7.6,17.7-11.7,28.5-11.7
	c10.8,0,20.9,4.2,28.5,11.7C-572.1,1541.9-567.9,1552-567.9,1562.7 M-560.4,1562.7c0-12.7-5-24.6-14-33.6c-9-9-21-13.9-33.8-13.9
	c-12.8,0-24.8,4.9-33.8,13.9c-9,9-14,20.9-14,33.6c0,14.8,7.6,35.6,22.5,61.8c11,19.3,22.1,34.6,22.3,34.7c0.7,1,1.8,1.5,3,1.5h0
	c1.2,0,2.3-0.6,3-1.5c0.1-0.2,11.3-15.6,22.2-34.9C-568,1597.9-560.4,1577.2-560.4,1562.7"/>
<path class="st4" d="M-256.8,1178.8c0,15.4-12.6,27.9-28.1,27.9c-15.5,0-28.1-12.5-28.1-27.9c0-15.4,12.6-27.9,28.1-27.9
	C-269.4,1150.9-256.8,1163.4-256.8,1178.8 M-246.3,1178.8c0-21.2-17.3-38.4-38.6-38.4c-21.3,0-38.6,17.2-38.6,38.4
	c0,21.2,17.3,38.4,38.6,38.4C-263.6,1217.2-246.3,1200-246.3,1178.8 M-228.1,1174.4c0,18.4-10.5,46.6-30.3,81.5
	c-10.4,18.3-20.9,34-26.5,42.3c-5.6-8.1-16.1-23.7-26.4-41.8c-19.8-34.8-30.3-63.1-30.3-81.9c0-15.1,5.9-29.2,16.6-39.9
	c10.7-10.6,25-16.5,40.1-16.5c15.2,0,29.4,5.9,40.1,16.5C-234,1145.1-228.1,1159.3-228.1,1174.4 M-217.6,1174.4
	c0-17.9-7-34.7-19.7-47.3c-12.7-12.7-29.6-19.6-47.6-19.6c-18,0-34.9,7-47.6,19.6c-12.7,12.6-19.7,29.4-19.7,47.3
	c0,20.9,10.7,50.2,31.7,87.1c15.5,27.2,31.2,48.7,31.4,48.9c1,1.4,2.6,2.2,4.3,2.2h0c1.7,0,3.3-0.8,4.3-2.2
	c0.2-0.2,15.9-22,31.3-49.2C-228.2,1224.1-217.6,1194.9-217.6,1174.4"/>
</svg>
